<?xml version="1.0" encoding="UTF-8" standalone="no" ?>
<!DOCTYPE svg PUBLIC "-//W3C//DTD SVG 1.1//EN" "http://www.w3.org/Graphics/SVG/1.1/DTD/svg11.dtd">
<svg xmlns="http://www.w3.org/2000/svg" xmlns:xlink="http://www.w3.org/1999/xlink" version="1.1" width="1280" height="1024" viewBox="0 0 1280 1024" xml:space="preserve">
<desc>Created with Fabric.js 5.3.0</desc>
<defs>
</defs>
<g transform="matrix(1 0 0 1 640 512)" id="background-logo"  >
<rect style="stroke: none; stroke-width: 0; stroke-dasharray: none; stroke-linecap: butt; stroke-dashoffset: 0; stroke-linejoin: miter; stroke-miterlimit: 4; fill: rgb(255,255,255); fill-opacity: 0; fill-rule: nonzero; opacity: 1;"  paint-order="stroke"  x="-640" y="-512" rx="0" ry="0" width="1280" height="1024" />
</g>
<g transform="matrix(1.6841702856653995 0 0 1.6841702856653995 261.0043749999999 512)" id="logo-logo"  >
<g style=""  paint-order="stroke"   >
		<g transform="matrix(0.8897556338300776 0 0 0.8897556338300776 0 0)"  >
<g style=""  paint-order="stroke"   >
		<g transform="matrix(1 0 0 1 0 0)"  >
<rect style="stroke: none; stroke-width: 1; stroke-dasharray: none; stroke-linecap: butt; stroke-dashoffset: 0; stroke-linejoin: miter; stroke-miterlimit: 4; fill: rgb(238,238,238); fill-rule: nonzero; opacity: 1;"  paint-order="stroke"  x="-100" y="-100" rx="40" ry="40" width="200" height="200" />
</g>
</g>
</g>
		<g transform="matrix(0.1259780081123955 0 0 -0.1259780081123955 0 0)"  >
<path style="stroke: none; stroke-width: 1; stroke-dasharray: none; stroke-linecap: butt; stroke-dashoffset: 0; stroke-linejoin: miter; stroke-miterlimit: 4; fill: rgb(69,69,69); fill-rule: nonzero; opacity: 1;"  paint-order="stroke"  transform=" translate(-602.4467967853733, -602.3100079988567)" d="M 486.613 23.0703 L 486.613 23.0703 C 482.855 38.6914 492.09 54.449200000000005 507.539 58.859399999999994 C 853.156 157.44099999999997 1118.12 523.863 1142.8899999999999 802.242 C 1156.4799999999998 954.9839999999999 1098.53 1067.8 979.7149999999999 1119.92 C 908.8359999999999 1151 840.4259999999999 1152.52 776.395 1124.38 C 640.535 1064.68 548.082 884.3240000000001 514.871 787.1640000000001 C 508.746 769.2500000000001 491.906 758.0590000000001 473.082 759.1090000000002 C 454.145 760.2460000000001 438.758 773.5040000000001 434.801 792.0940000000002 C 410.758 905.23 299.191 957.973 205.289 943.574 C 103.547 927.988 49.8398 844.492 61.6328 720.227 C 84.0898 483.434 277.664 319.82 388.504 260.477 C 476.44100000000003 213.38699999999997 575.75 229.35199999999998 647.652 302.13699999999994 L 929.703 587.68 C 943.4879999999999 601.625 950.063 620.5509999999999 947.813 640.3399999999999 C 945.957 656.6759999999999 937.234 671.4769999999999 924.922 682.3709999999999 L 787.789 803.719 C 761.793 826.73 721.512 824.6600000000001 698.004 799.129 L 393.094 488.055 C 388.461 483.004 385.777 475.563 386.188 467.785 C 386.594 460.00800000000004 390.03499999999997 452.89500000000004 395.883 447.75 L 506.03099999999995 349.754 C 518.41 338.738 519.516 319.77700000000004 508.50399999999996 307.398 L 508.50399999999996 307.398 C 497.488 295.02 478.527 293.914 466.148 304.926 L 356.113 402.82 C 338.172 418.609 327.527 440.602 326.266 464.64099999999996 C 325.00800000000004 488.67999999999995 333.293 511.66799999999995 349.598 529.3789999999999 L 654.508 840.4489999999998 C 699.3520000000001 889.1599999999999 777.2620000000001 893.1559999999998 827.5550000000001 848.6479999999998 L 966.355 725.8279999999997 C 992.164 702.9769999999997 1007.02 671.4179999999998 1008.1700000000001 636.9609999999998 C 1009.32 602.5119999999998 996.6170000000001 570.0309999999997 972.3910000000001 545.5119999999998 L 690.34 259.969 C 600.367 168.898 470.789 148.379 360.184 207.586 C 238.805 272.566 26.7617 452.477 1.89844 714.563 C -15.9453 902.672 95.418 987.445 196.203 1002.88 C 302.797 1019.21 427.02700000000004 968.004 477.102 855.348 C 514.148 942.0269999999999 603.68 1114.03 752.2539999999999 1179.31 C 832.2929999999999 1214.48 916.9219999999999 1212.99 1003.8199999999999 1174.87 C 1148.09 1111.59 1218.71 977.3589999999999 1202.6499999999999 796.9259999999999 C 1175.58 492.531 898.383 107.52 524.047 1.14844 C 507.629 -3.51172 490.602 6.46875 486.613 23.0703" stroke-linecap="round" />
</g>
		<g transform="matrix(0.1259780081123955 0 0 -0.1259780081123955 -41.262065742125344 -29.939832775186318)"  >
<path style="stroke: none; stroke-width: 1; stroke-dasharray: none; stroke-linecap: butt; stroke-dashoffset: 0; stroke-linejoin: miter; stroke-miterlimit: 4; fill: rgb(69,69,69); fill-rule: nonzero; opacity: 1;"  paint-order="stroke"  transform=" translate(-274.91291717908507, -839.9692091863725)" d="M 347.816 793.652 C 347.92999999999995 793.754 348.04699999999997 793.855 348.15999999999997 793.9530000000001 C 358.53099999999995 802.9920000000001 359.02299999999997 820.1370000000001 349.582 830.3480000000001 C 313.441 869.4300000000001 264.11699999999996 890.211 215.96099999999998 891.5630000000001 C 203.66799999999998 891.9100000000001 193.50799999999998 880.9920000000001 193.50799999999998 867.3710000000001 L 193.50799999999998 866.9060000000001 C 193.50799999999998 853.758 203.00799999999998 843.1370000000001 214.879 842.8320000000001 C 252.56599999999997 841.8710000000001 291.15999999999997 825.6720000000001 319.148 795.0700000000002 C 326.91400000000004 786.5780000000002 339.21500000000003 786.2110000000001 347.81600000000003 793.6520000000002" stroke-linecap="round" />
</g>
		<g transform="matrix(0.1259780081123955 0 0 -0.1259780081123955 43.36175633657075 -51.03127322632278)"  >
<path style="stroke: none; stroke-width: 1; stroke-dasharray: none; stroke-linecap: butt; stroke-dashoffset: 0; stroke-linejoin: miter; stroke-miterlimit: 4; fill: rgb(69,69,69); fill-rule: nonzero; opacity: 1;"  paint-order="stroke"  transform=" translate(-946.6477965176762, -1007.3908152838355)" d="M 957.887 1062.36 C 920.2969999999999 1080.87 883.262 1089.3 847.102 1087.6999999999998 C 835.137 1087.1799999999998 825.805 1075.83 825.645 1062.3899999999999 C 825.645 1062.2099999999998 825.641 1062.04 825.641 1061.87 C 825.4689999999999 1047.1799999999998 836.348 1035.4599999999998 849.4259999999999 1035.9899999999998 C 878.645 1037.1599999999999 908.727 1030.2299999999998 939.4219999999999 1015.1199999999998 C 975.6479999999999 997.2849999999997 1004.4499999999999 971.1479999999998 1025.3799999999999 937.8949999999998 C 1033.2299999999998 925.4059999999997 1048.78 923.1719999999998 1059.11 933.1249999999998 C 1059.3 933.3049999999997 1059.4799999999998 933.4839999999998 1059.6699999999998 933.6639999999998 C 1068.4599999999998 942.1129999999997 1070.31 956.7929999999998 1063.6399999999999 967.4099999999997 C 1038.08 1008.1199999999998 1002.6899999999998 1040.3099999999997 957.8869999999998 1062.3599999999997" stroke-linecap="round" />
</g>
		<g transform="matrix(0.1259780081123955 0 0 -0.1259780081123955 -11.126163799246001 25.892896967826005)"  >
<path style="stroke: none; stroke-width: 1; stroke-dasharray: none; stroke-linecap: butt; stroke-dashoffset: 0; stroke-linejoin: miter; stroke-miterlimit: 4; fill: rgb(69,69,69); fill-rule: nonzero; opacity: 1;"  paint-order="stroke"  transform=" translate(-514.1284945201133, -396.7749518744195)" d="M 514.195 373.691 L 491.13700000000006 394.715 C 484.19500000000005 401.04699999999997 483.69900000000007 411.80499999999995 490.02700000000004 418.75 L 490.02700000000004 418.75 C 496.35900000000004 425.691 507.117 426.188 514.0630000000001 419.855 L 537.1170000000001 398.836 C 544.0630000000001 392.504 544.5590000000001 381.742 538.2270000000001 374.801 L 538.2270000000001 374.801 C 531.8980000000001 367.859 521.1370000000001 367.363 514.195 373.691" stroke-linecap="round" />
</g>
		<g transform="matrix(0.1259780081123955 0 0 -0.1259780081123955 10.835639235634972 4.535227515457251)"  >
<path style="stroke: none; stroke-width: 1; stroke-dasharray: none; stroke-linecap: butt; stroke-dashoffset: 0; stroke-linejoin: miter; stroke-miterlimit: 4; fill: rgb(69,69,69); fill-rule: nonzero; opacity: 1;"  paint-order="stroke"  transform=" translate(-688.4589460326259, -566.309855405469)" d="M 911.977 637.047 C 911.3199999999999 642.852 907.742 649.008 902.148 653.953 L 762.883 777.191 C 752.9300000000001 786.004 737.2850000000001 785.332 728.125 775.6990000000001 L 727.25 774.781 L 471.48 514.434 C 462.03900000000004 504.80899999999997 462.617 489.227 472.74600000000004 480.32399999999996 L 615.234 355.086 C 624.586 346.863 638.7230000000001 347.363 647.4730000000001 356.223 L 905.039 616.672 C 910.477 622.172 912.871 629.215 911.977 637.047" stroke-linecap="round" />
</g>
</g>
</g>
<g transform="matrix(1.9211538461538462 0 0 1.9211538461538462 819.4645865384617 483.7460692862958)" id="text-logo"  >
<g style=""  paint-order="stroke"   >
		<g transform="matrix(1 0 0 1 0 0)" id="text-logo-path-0"  >
<path style="stroke: none; stroke-width: 0; stroke-dasharray: none; stroke-linecap: butt; stroke-dashoffset: 0; stroke-linejoin: miter; stroke-miterlimit: 4; fill: rgb(238,238,238); fill-rule: nonzero; opacity: 1;"  paint-order="stroke"  transform=" translate(-181.79000000000002, 24.36)" d="M 4.2 -8.19 C 8.54 -2.8 14.77 0.28 21.49 0.28 C 31.64 0.28 39.76 -5.88 39.76 -14.77 C 39.76 -24.36 32.48 -26.81 22.82 -28.91 C 16.66 -30.38 14.07 -31.29 14.07 -34.58 C 14.07 -37.24 16.45 -39.48 21.21 -39.48 C 24.5 -39.48 26.88 -38.29 28.63 -36.61 C 29.54 -35.77 30.73 -35.28 32.06 -35.28 C 34.72 -35.28 36.96 -37.45 36.96 -40.18 C 36.96 -41.58 36.4 -42.77 35.42 -43.68 C 32.13 -46.83 27.51 -49.28 21.21 -49.28 C 11.06 -49.28 4.27 -42.84 4.27 -34.58 C 4.27 -24.64 11.83 -21.49 20.58 -19.39 C 27.37 -17.92 29.96 -17.43 29.96 -14.77 C 29.96 -11.69 26.25 -9.52 21.49 -9.52 C 17.78 -9.52 14.42 -11.13 11.83 -14.35 C 10.92 -15.47 9.52 -16.17 7.98 -16.17 C 5.32 -16.17 3.08 -14 3.08 -11.27 C 3.08 -10.15 3.5 -9.03 4.2 -8.19 Z M 69.72 -4.41 L 69.72 -20.3 L 90.02 -20.3 L 90.02 -4.41 C 90.02 -1.68 92.19 0.49 94.92 0.49 C 97.65 0.49 99.82 -1.68 99.82 -4.41 L 99.82 -44.59 C 99.82 -47.32 97.65 -49.49 94.92 -49.49 C 92.19 -49.49 90.02 -47.32 90.02 -44.59 L 90.02 -30.1 L 69.72 -30.1 L 69.72 -44.59 C 69.72 -47.32 67.55 -49.49 64.82 -49.49 C 62.09 -49.49 59.92 -47.32 59.92 -44.59 L 59.92 -4.41 C 59.92 -1.68 62.09 0.49 64.82 0.49 C 67.55 0.49 69.72 -1.68 69.72 -4.41 Z M 129.78 -4.13 L 129.78 -13.3 L 151.55 -13.3 L 151.55 -4.13 C 151.55 -1.4 153.72 0.77 156.45 0.77 C 159.18 0.77 161.35 -1.4 161.35 -4.13 L 161.35 -28.56 C 161.35 -40.04 152.11 -49.28 140.7 -49.28 C 129.22 -49.28 119.98 -40.04 119.98 -28.56 L 119.98 -4.13 C 119.98 -1.4 122.15 0.77 124.88 0.77 C 127.61 0.77 129.78 -1.4 129.78 -4.13 Z M 129.78 -23.1 L 129.78 -28.56 C 129.78 -34.58 134.68 -39.48 140.7 -39.48 C 146.65 -39.48 151.55 -34.58 151.55 -28.56 L 151.55 -23.1 Z M 191.31 -4.41 L 191.31 -44.59 C 191.31 -47.32 189.14 -49.49 186.41 -49.49 C 183.68 -49.49 181.51 -47.32 181.51 -44.59 L 181.51 -4.41 C 181.51 -1.68 183.68 0.49 186.41 0.49 C 189.14 0.49 191.31 -1.68 191.31 -4.41 Z M 221.27 -4.41 L 221.27 -20.3 L 234.36 -20.3 C 238.28 -20.3 241.57 -17.01 241.57 -13.09 L 241.57 -4.41 C 241.57 -1.68 243.74 0.49 246.47 0.49 C 249.2 0.49 251.37 -1.68 251.37 -4.41 L 251.37 -13.09 C 251.37 -18.76 248.57 -23.8 244.3 -26.88 C 246.54 -29.75 247.87 -33.39 247.87 -37.31 L 247.87 -44.59 C 247.87 -47.32 245.7 -49.49 242.97 -49.49 C 240.24 -49.49 238.07 -47.32 238.07 -44.59 L 238.07 -37.31 C 238.07 -33.39 234.78 -30.1 230.86 -30.1 L 221.27 -30.1 L 221.27 -44.59 C 221.27 -47.32 219.1 -49.49 216.37 -49.49 C 213.64 -49.49 211.47 -47.32 211.47 -44.59 L 211.47 -4.41 C 211.47 -1.68 213.64 0.49 216.37 0.49 C 219.1 0.49 221.27 -1.68 221.27 -4.41 Z M 276.43 0 L 298.97 0 C 301.63 0 303.87 -2.17 303.87 -4.9 C 303.87 -7.63 301.7 -9.8 298.97 -9.8 L 281.33 -9.8 L 281.33 -44.59 C 281.33 -47.32 279.16 -49.49 276.43 -49.49 C 273.7 -49.49 271.53 -47.32 271.53 -44.59 L 271.53 -4.9 C 271.53 -2.17 273.7 0 276.43 0 Z M 350.7 -44.59 L 350.7 -35.56 C 350.7 -29.54 345.8 -24.64 339.78 -24.64 C 333.83 -24.64 328.93 -29.54 328.93 -35.56 L 328.93 -44.59 C 328.93 -47.32 326.76 -49.49 324.03 -49.49 C 321.3 -49.49 319.13 -47.32 319.13 -44.59 L 319.13 -35.56 C 319.13 -25.76 325.78 -17.64 334.88 -15.4 L 334.88 -15.33 L 334.95 -4.41 C 334.95 -1.75 337.12 0.49 339.85 0.49 C 342.58 0.49 344.75 -1.75 344.75 -4.41 L 344.68 -15.33 L 344.68 -15.4 C 353.71 -17.57 360.5 -25.76 360.5 -35.56 L 360.5 -44.59 C 360.5 -47.32 358.33 -49.49 355.6 -49.49 C 352.87 -49.49 350.7 -47.32 350.7 -44.59 Z" stroke-linecap="round" />
</g>
</g>
</g>
<g transform="matrix(1.9211538461538462 0 0 1.9211538461538462 821.1716198375841 581.8153486448507)" id="tagline-1a4e749c-fe0a-4cfc-a0fb-831682af202b-logo"  >
<g style=""  paint-order="stroke"   >
		<g transform="matrix(1 0 0 1 0 0)" id="tagline-1a4e749c-fe0a-4cfc-a0fb-831682af202b-logo-path-0"  >
<path style="stroke: none; stroke-width: 0; stroke-dasharray: none; stroke-linecap: butt; stroke-dashoffset: 0; stroke-linejoin: miter; stroke-miterlimit: 4; fill: rgb(238,238,238); fill-rule: nonzero; opacity: 1;"  paint-order="stroke"  transform=" translate(-99.11000000000001, 9.1)" d="M 14.72 -3.43 C 13.49 -2.5 12.04 -1.95 10.4 -1.95 C 6.45 -1.95 3.22 -5.17 3.22 -9.13 C 3.22 -13.03 6.45 -16.25 10.4 -16.25 C 12.01 -16.25 13.52 -15.68 14.72 -14.77 C 14.87 -14.66 15.11 -14.56 15.37 -14.56 C 15.91 -14.56 16.41 -15.03 16.41 -15.6 C 16.41 -15.91 16.22 -16.25 15.99 -16.43 C 14.4 -17.63 12.48 -18.33 10.4 -18.33 C 5.3 -18.33 1.14 -14.17 1.14 -9.13 C 1.14 -4.03 5.3 0.13 10.4 0.13 C 12.51 0.13 14.46 -0.6 15.99 -1.77 C 16.22 -1.95 16.41 -2.26 16.41 -2.6 C 16.41 -3.15 15.94 -3.64 15.37 -3.64 C 15.13 -3.64 14.9 -3.56 14.72 -3.43 Z M 28.44 -0.94 L 28.44 -6.89 C 28.44 -7.54 28.96 -8.06 29.61 -8.06 L 37.41 -8.06 C 38.06 -8.06 38.58 -7.54 38.58 -6.89 L 38.58 -0.94 C 38.58 -0.36 39.05 0.1 39.62 0.1 C 40.2 0.1 40.66 -0.36 40.66 -0.94 L 40.66 -17.26 C 40.66 -17.84 40.2 -18.3 39.62 -18.3 C 39.05 -18.3 38.58 -17.84 38.58 -17.26 L 38.58 -11.31 C 38.58 -10.66 38.06 -10.14 37.41 -10.14 L 29.61 -10.14 C 28.96 -10.14 28.44 -10.66 28.44 -11.31 L 28.44 -17.26 C 28.44 -17.84 27.98 -18.3 27.4 -18.3 C 26.83 -18.3 26.36 -17.84 26.36 -17.26 L 26.36 -0.94 C 26.36 -0.36 26.83 0.1 27.4 0.1 C 27.98 0.1 28.44 -0.36 28.44 -0.94 Z M 61.39 -2.08 L 53.87 -2.08 C 53.22 -2.08 52.7 -2.6 52.7 -3.25 L 52.7 -6.89 C 52.7 -7.54 53.22 -8.06 53.87 -8.06 L 59.57 -8.06 C 60.14 -8.06 60.61 -8.53 60.61 -9.1 C 60.61 -9.67 60.14 -10.14 59.57 -10.14 L 53.87 -10.14 C 53.22 -10.14 52.7 -10.66 52.7 -11.31 L 52.7 -14.95 C 52.7 -15.6 53.22 -16.12 53.87 -16.12 L 61.39 -16.12 C 61.96 -16.12 62.43 -16.59 62.43 -17.16 C 62.43 -17.73 61.96 -18.2 61.39 -18.2 L 52.05 -18.2 C 51.27 -18.2 50.62 -17.55 50.62 -16.77 L 50.62 -1.43 C 50.62 -0.65 51.27 0 52.05 0 L 61.39 0 C 61.96 0 62.43 -0.47 62.43 -1.04 C 62.43 -1.61 61.96 -2.08 61.39 -2.08 Z M 84.92 -3.43 C 83.69 -2.5 82.24 -1.95 80.6 -1.95 C 76.65 -1.95 73.42 -5.17 73.42 -9.13 C 73.42 -13.03 76.65 -16.25 80.6 -16.25 C 82.21 -16.25 83.72 -15.68 84.92 -14.77 C 85.07 -14.66 85.31 -14.56 85.57 -14.56 C 86.11 -14.56 86.61 -15.03 86.61 -15.6 C 86.61 -15.91 86.42 -16.25 86.19 -16.43 C 84.6 -17.63 82.68 -18.33 80.6 -18.33 C 75.5 -18.33 71.34 -14.17 71.34 -9.13 C 71.34 -4.03 75.5 0.13 80.6 0.13 C 82.71 0.13 84.66 -0.6 86.19 -1.77 C 86.42 -1.95 86.61 -2.26 86.61 -2.6 C 86.61 -3.15 86.14 -3.64 85.57 -3.64 C 85.33 -3.64 85.1 -3.56 84.92 -3.43 Z M 98.64 -0.94 L 98.64 -4.08 C 98.64 -4.73 99.01 -5.62 99.48 -6.08 L 100.18 -6.79 C 100.65 -7.25 101.37 -7.25 101.84 -6.79 L 108.42 -0.18 C 108.6 0 108.89 0.13 109.17 0.13 C 109.72 0.13 110.21 -0.34 110.21 -0.91 C 110.21 -1.2 110.08 -1.48 109.69 -1.87 L 103.32 -8.27 C 102.86 -8.74 102.86 -9.46 103.32 -9.93 L 109.9 -16.56 C 110.08 -16.74 110.21 -17 110.21 -17.29 C 110.21 -17.86 109.75 -18.33 109.17 -18.33 C 108.91 -18.33 108.63 -18.23 108.45 -18.04 L 99.48 -9.02 C 99.01 -8.55 98.64 -8.71 98.64 -9.36 L 98.64 -17.26 C 98.64 -17.84 98.18 -18.3 97.6 -18.3 C 97.03 -18.3 96.56 -17.84 96.56 -17.26 L 96.56 -0.94 C 96.56 -0.36 97.03 0.1 97.6 0.1 C 98.18 0.1 98.64 -0.36 98.64 -0.94 Z M 135.12 -0.94 L 135.12 -17.26 C 135.12 -17.84 134.65 -18.3 134.08 -18.3 C 133.51 -18.3 133.04 -17.84 133.04 -17.26 L 133.04 -0.94 C 133.04 -0.36 133.51 0.1 134.08 0.1 C 134.65 0.1 135.12 -0.36 135.12 -0.94 Z M 163.28 -0.94 L 163.28 -16.85 C 163.28 -18.28 161.38 -18.82 160.63 -17.6 L 154.8 -8.53 C 154.47 -7.98 153.89 -7.98 153.56 -8.53 L 147.73 -17.6 C 146.98 -18.82 145.08 -18.28 145.08 -16.85 L 145.08 -0.94 C 145.08 -0.36 145.55 0.1 146.12 0.1 C 146.69 0.1 147.16 -0.36 147.16 -0.94 L 147.16 -13.47 C 147.16 -14.12 147.45 -14.2 147.78 -13.65 L 153.06 -5.43 C 153.58 -4.58 154.78 -4.58 155.3 -5.43 L 160.58 -13.65 C 160.91 -14.2 161.2 -14.12 161.2 -13.47 L 161.2 -0.94 C 161.2 -0.36 161.67 0.1 162.24 0.1 C 162.81 0.1 163.28 -0.36 163.28 -0.94 Z M 145.96 -16.51 L 145.96 -16.48 Z M 162.4 -16.48 L 162.4 -16.51 Z M 184 -2.08 L 176.49 -2.08 C 175.84 -2.08 175.32 -2.6 175.32 -3.25 L 175.32 -6.89 C 175.32 -7.54 175.84 -8.06 176.49 -8.06 L 182.18 -8.06 C 182.75 -8.06 183.22 -8.53 183.22 -9.1 C 183.22 -9.67 182.75 -10.14 182.18 -10.14 L 176.49 -10.14 C 175.84 -10.14 175.32 -10.66 175.32 -11.31 L 175.32 -14.95 C 175.32 -15.6 175.84 -16.12 176.49 -16.12 L 184 -16.12 C 184.57 -16.12 185.04 -16.59 185.04 -17.16 C 185.04 -17.73 184.57 -18.2 184 -18.2 L 174.67 -18.2 C 173.89 -18.2 173.24 -17.55 173.24 -16.77 L 173.24 -1.43 C 173.24 -0.65 173.89 0 174.67 0 L 184 0 C 184.57 0 185.04 -0.47 185.04 -1.04 C 185.04 -1.61 184.57 -2.08 184 -2.08 Z M 197.08 -0.94 L 197.08 -17.26 C 197.08 -17.84 196.61 -18.3 196.04 -18.3 C 195.47 -18.3 195 -17.84 195 -17.26 L 195 -0.94 C 195 -0.36 195.47 0.1 196.04 0.1 C 196.61 0.1 197.08 -0.36 197.08 -0.94 Z" stroke-linecap="round" />
</g>
</g>
</g>
</svg>